<svg width="255" height="392" viewBox="0 0 255 392" fill="none" xmlns="http://www.w3.org/2000/svg">
<path d="M183.484 138H55.8118C48.6489 138 42.8421 143.807 42.8421 150.97V196.271C42.8421 203.434 48.6489 209.24 55.8118 209.24H183.484C190.647 209.24 196.454 203.434 196.454 196.271V150.97C196.454 143.807 190.647 138 183.484 138Z" fill="#F58B28"/>
<path d="M133.003 209.238H106.29V224.826H133.003V209.238Z" fill="#FFA41C"/>
<path d="M175.313 223H64V308.05H175.313V223Z" fill="#F58B28"/>
<path d="M108 382H68V392H108V382Z" fill="#FFA41C"/>
<path d="M174 382H134V392H174V382Z" fill="#FFA41C"/>
<path d="M177.766 310H62V321.131H177.766V310Z" fill="#FFA41C"/>
<path d="M75 336.067V347.266V364.066V373.4V379H101V373.4V364.066V347.266V336.067V323H75V336.067Z" fill="#F58B28"/>
<path d="M141 323V336.067V347.266V364.066V373.4V379H167V373.4V364.066V347.266V336.067V323H141Z" fill="#F58B28"/>
<path d="M61.5563 223.119V243.71C56.0568 244.671 50.9326 247.141 46.7557 250.845C42.8822 254.432 39.8701 258.849 37.9447 263.764C35.4896 270.075 34.026 276.728 33.6058 283.487C32.9755 292.324 33.3889 301.205 34.8374 309.945H12.5751C11.6473 299.31 11.8426 288.607 13.1578 278.013C14.208 269.257 16.6185 260.718 20.3025 252.705C26.7523 239.177 35.9261 231.838 43.9856 227.851C49.446 225.06 55.4324 223.447 61.5563 223.119Z" fill="#FFA41C"/>
<path d="M177 243.614L178.438 223.073C183.991 222.499 189.275 220.393 193.7 216.989C197.815 213.681 201.128 209.486 203.392 204.716C206.281 198.592 208.206 192.058 209.097 185.345C210.343 176.573 210.55 167.686 209.716 158.865L231.924 160.42C232.107 171.093 231.165 181.757 229.113 192.233C227.454 200.895 224.453 209.244 220.219 216.981C212.84 230.025 203.176 236.706 194.858 240.12C189.216 242.524 183.132 243.714 177 243.614Z" fill="#FFA41C"/>
<path opacity="0.1" d="M133.003 209.238H106.29V211.083H133.003V209.238Z" fill="black"/>
<path opacity="0.1" d="M169.739 309.424H69.559V310.742H169.739V309.424Z" fill="black"/>
<path d="M40.3965 149.549C40.3965 149.549 29.7272 125.584 33.6771 120.104C33.6771 120.104 30.518 105.519 30.5637 102.321C30.1301 96.9881 27.5404 91.846 23.0345 87.3709C17.5806 81.9936 11.8573 56.7892 45.1342 50.346C78.411 43.9028 103.934 38.1847 107.866 33.9835C111.798 29.7824 168.737 31.7145 183.997 47.5386C199.257 63.3627 209.259 60.0542 209.259 60.0542C209.259 60.0542 232.913 69.0694 232.794 77.3865C232.675 85.7037 225.424 89.9414 232.588 91.7816C239.751 93.6218 233.725 128.231 202.181 129.538L199.155 147.802C199.155 147.802 109.463 132.428 40.3965 149.549Z" fill="white"/>
<path d="M34.0803 120.389L34.2133 120.205L34.1659 119.986L33.6771 120.104C34.1659 119.986 34.1659 119.986 34.1659 119.986L34.1658 119.985L34.1654 119.983L34.1637 119.976L34.157 119.944L34.1306 119.822C34.1076 119.715 34.0737 119.557 34.0306 119.355C33.9445 118.95 33.8214 118.369 33.6738 117.661C33.3787 116.245 32.9857 114.325 32.5942 112.305C32.2027 110.284 31.8132 108.167 31.5247 106.358C31.2337 104.533 31.053 103.064 31.0637 102.315L31.064 102.291L31.0621 102.268C30.6173 96.7966 27.9622 91.5514 23.3913 87.0117L23.3901 87.0105C22.1113 85.7497 20.7636 83.2591 19.9932 80.0935C19.2258 76.9403 19.0448 73.1696 20.0437 69.3739C22.0282 61.8329 28.72 54.031 45.2172 50.8368C61.8568 47.615 76.5682 44.5725 87.6143 41.8089C93.1364 40.4273 97.7533 39.1128 101.241 37.8773C102.985 37.2596 104.456 36.6584 105.622 36.0744C106.777 35.4952 107.672 34.9134 108.227 34.3202C108.381 34.156 108.73 33.9503 109.349 33.7434C109.95 33.5426 110.741 33.361 111.708 33.2042C113.64 32.8909 116.222 32.6846 119.275 32.6037C125.378 32.442 133.317 32.7827 141.613 33.7482C149.91 34.7139 158.55 36.3028 166.058 38.6319C173.58 40.9656 179.904 44.0237 183.633 47.8903C191.311 55.8527 197.701 59.0366 202.213 60.2144C204.468 60.8031 206.246 60.8888 207.472 60.8232C208.085 60.7904 208.559 60.7199 208.884 60.656C209.025 60.6284 209.138 60.602 209.222 60.5805C209.254 60.5929 209.291 60.6072 209.332 60.6235C209.504 60.6909 209.756 60.7911 210.077 60.9217C210.72 61.183 211.639 61.5658 212.742 62.0513C214.949 63.0226 217.887 64.4026 220.819 66.0395C223.755 67.6786 226.663 69.5641 228.824 71.5422C231.008 73.5418 232.32 75.5384 232.294 77.392C232.248 80.6168 231.105 83.1803 230.155 85.3098C229.916 85.8452 229.69 86.3532 229.496 86.8374C229.033 87.9946 228.708 89.1368 229.118 90.1269C229.537 91.1377 230.633 91.7987 232.452 92.2661C233.143 92.4435 233.741 93.0312 234.168 94.0776C234.594 95.1214 234.819 96.5576 234.795 98.2791C234.746 101.717 233.701 106.182 231.454 110.644C226.97 119.552 217.73 128.394 202.173 129.038L201.757 129.055L201.688 129.468L198.746 147.225C198.601 147.201 198.426 147.172 198.222 147.14C197.547 147.031 196.548 146.874 195.252 146.68C192.661 146.293 188.883 145.758 184.135 145.171C174.638 143.996 161.257 142.608 145.716 141.756C114.762 140.058 75.2021 140.482 40.6912 148.964C40.6181 148.796 40.5221 148.573 40.4065 148.302C40.1236 147.639 39.7236 146.685 39.2557 145.522C38.3197 143.196 37.1137 140.04 36.0314 136.716C34.948 133.388 33.9942 129.909 33.5554 126.931C33.3359 125.442 33.2478 124.096 33.3305 122.966C33.4137 121.828 33.6666 120.963 34.0803 120.389Z" stroke="black" stroke-opacity="0.14"/>
<path opacity="0.1" d="M53.5287 59.3921L58.4997 91.3368C52.9382 86.8844 51.6954 78.7328 51.9498 71.3616C52.0832 67.4959 52.6268 63.8989 53.138 61.2664C53.2734 60.5691 53.4064 59.94 53.5287 59.3921Z" fill="black" stroke="black"/>
<path opacity="0.1" d="M85.1487 55.8161L73.379 83.4186C73.2474 82.9331 73.2039 82.3263 73.2568 81.5941C73.347 80.3449 73.7117 78.8182 74.2855 77.1037C75.4321 73.6778 77.3812 69.5962 79.4813 65.6633C81.4263 62.0208 83.4917 58.5223 85.1487 55.8161Z" fill="black" stroke="black"/>
<path opacity="0.1" d="M102.6 47.7145L96.8163 80.4C96.5576 80.0238 96.3542 79.4667 96.2267 78.6974C96.0214 77.459 96.0372 75.8099 96.229 73.8694C96.6119 69.9947 97.6828 65.0793 98.9477 60.2315C100.138 55.6679 101.496 51.183 102.6 47.7145Z" fill="black" stroke="black"/>
<path opacity="0.1" d="M123.847 54.942L115.86 77.3711C115.53 77.0396 115.319 76.5767 115.217 75.9726C115.071 75.0977 115.167 73.9665 115.469 72.6401C116.073 69.9918 117.461 66.7263 119.061 63.5268C120.658 60.3354 122.451 57.2409 123.847 54.942Z" fill="black" stroke="black"/>
<path opacity="0.1" d="M151.53 58.2626L140.362 75.5205C140.316 75.2764 140.32 74.9703 140.388 74.5887C140.528 73.8 140.924 72.8056 141.528 71.6604C142.732 69.3769 144.694 66.6254 146.791 63.9573C148.397 61.9133 150.074 59.9306 151.53 58.2626Z" fill="black" stroke="black"/>
<path opacity="0.1" d="M188.796 73.3268L177.223 78.77C177.031 78.4977 177.031 78.2813 177.093 78.0979C177.196 77.794 177.521 77.4187 178.14 76.998C179.359 76.1692 181.385 75.3836 183.597 74.7024C185.364 74.1583 187.214 73.6911 188.796 73.3268Z" fill="black" stroke="black"/>
<path opacity="0.1" d="M206.389 94.2335L196.826 99.7318C196.821 99.7171 196.816 99.7033 196.813 99.6904C196.796 99.6197 196.798 99.5284 196.852 99.3988C196.972 99.1122 197.304 98.7361 197.891 98.2924C199.044 97.421 200.907 96.4873 202.916 95.6225C204.078 95.1222 205.275 94.6508 206.389 94.2335Z" fill="black" stroke="black"/>
<path opacity="0.1" d="M160.07 116.18C136.452 111.734 103.423 109.133 62.166 114.785C73.2158 112.767 87.697 110.604 103.448 109.509C120.58 108.318 139.199 108.392 156.534 111.283C172.29 113.912 186.955 118.863 198.478 127.281C196.739 126.538 194.432 125.609 191.573 124.576C184.436 121.999 173.857 118.776 160.07 116.18Z" fill="black" stroke="black"/>
<path d="M207.324 113.294C207.15 111.529 208.537 110 210.31 110H233.797C235.531 110 236.904 111.466 236.79 113.196L235.184 137.696C235.08 139.274 233.771 140.5 232.19 140.5H212.719C211.176 140.5 209.885 139.329 209.734 137.794L207.324 113.294Z" fill="#634313"/>
<rect x="220" y="141" width="5" height="28" rx="2" fill="#634313"/>
<circle cx="214.5" cy="117.5" r="2.5" fill="#634313" fill-opacity="0.45"/>
<circle cx="214.5" cy="117.5" r="2.5" fill="#634313" fill-opacity="0.45"/>
<circle cx="214.5" cy="117.5" r="2.5" fill="white"/>
<circle cx="222.5" cy="117.5" r="2.5" fill="#634313" fill-opacity="0.45"/>
<circle cx="222.5" cy="117.5" r="2.5" fill="#634313" fill-opacity="0.45"/>
<circle cx="222.5" cy="117.5" r="2.5" fill="white"/>
<circle cx="222.5" cy="124.5" r="2.5" fill="#634313" fill-opacity="0.45"/>
<circle cx="222.5" cy="124.5" r="2.5" fill="#634313" fill-opacity="0.45"/>
<circle cx="222.5" cy="124.5" r="2.5" fill="white"/>
<circle cx="222.5" cy="131.5" r="2.5" fill="#634313" fill-opacity="0.45"/>
<circle cx="222.5" cy="131.5" r="2.5" fill="#634313" fill-opacity="0.45"/>
<circle cx="222.5" cy="131.5" r="2.5" fill="white"/>
<circle cx="230.5" cy="117.5" r="2.5" fill="#634313" fill-opacity="0.45"/>
<circle cx="230.5" cy="117.5" r="2.5" fill="#634313" fill-opacity="0.45"/>
<circle cx="230.5" cy="117.5" r="2.5" fill="white"/>
<circle cx="230.5" cy="124.5" r="2.5" fill="#634313" fill-opacity="0.45"/>
<circle cx="230.5" cy="124.5" r="2.5" fill="#634313" fill-opacity="0.45"/>
<circle cx="230.5" cy="124.5" r="2.5" fill="white"/>
<circle cx="230.5" cy="131.5" r="2.5" fill="#634313" fill-opacity="0.45"/>
<circle cx="230.5" cy="131.5" r="2.5" fill="#634313" fill-opacity="0.45"/>
<circle cx="230.5" cy="131.5" r="2.5" fill="white"/>
<circle cx="214.5" cy="124.5" r="2.5" fill="#634313" fill-opacity="0.45"/>
<circle cx="214.5" cy="124.5" r="2.5" fill="#634313" fill-opacity="0.45"/>
<circle cx="214.5" cy="124.5" r="2.5" fill="white"/>
<circle cx="214.5" cy="131.5" r="2.5" fill="#634313" fill-opacity="0.45"/>
<circle cx="214.5" cy="131.5" r="2.5" fill="#634313" fill-opacity="0.45"/>
<circle cx="214.5" cy="131.5" r="2.5" fill="white"/>
</svg>
